<svg width="21" height="20" viewBox="0 0 21 20" fill="#150958" xmlns="http://www.w3.org/2000/svg">
    <path d="M9.33398 0.53513C8.74568 0.19479 8.06255 0 7.33398 0C5.12484 0 3.33398 1.79086 3.33398 4V5.77422C2.48293 6.11644 1.78541 6.64785 1.27524 7.34933C0.626374 8.2415 0.333984 9.3347 0.333984 10.5C0.333984 12.0614 1.12927 13.4356 2.33398 14.242V15.5C2.33398 17.9853 4.3487 20 6.83398 20C7.75905 20 8.61898 19.7209 9.33398 19.2422V15.5C9.33398 14.167 9.00398 13.3147 8.47418 12.7408C7.93141 12.1528 7.0502 11.7165 5.66958 11.4864L5.99838 9.5136C7.3 9.7305 8.43978 10.1373 9.33398 10.8271V0.53513ZM11.334 0.53513V10.8271C12.2282 10.1373 13.368 9.7305 14.6696 9.5136L14.9984 11.4864C13.6178 11.7165 12.7366 12.1528 12.1938 12.7408C11.664 13.3147 11.334 14.167 11.334 15.5V19.2422C12.049 19.7209 12.9089 20 13.834 20C16.3193 20 18.334 17.9853 18.334 15.5V14.242C19.5387 13.4356 20.334 12.0614 20.334 10.5C20.334 9.3347 20.0416 8.2415 19.3927 7.34933C18.8826 6.64785 18.1851 6.11644 17.334 5.77422V4C17.334 1.79086 15.5431 0 13.334 0C12.6054 0 11.9223 0.19479 11.334 0.53513Z" fill="#150958"/>
</svg>