<svg width="21" height="21" viewBox="0 0 21 21" fill="none" xmlns="http://www.w3.org/2000/svg">
    <path d="M16.365 14.6168L20.6477 18.8995L19.2335 20.3137L14.9508 16.031C13.4109 17.263 11.458 18 9.33398 18C4.36598 18 0.333984 13.968 0.333984 9C0.333984 4.032 4.36598 0 9.33398 0C14.302 0 18.334 4.032 18.334 9C18.334 11.124 17.597 13.0769 16.365 14.6168ZM10.5119 5.17624C10.1395 5.06167 9.74398 5 9.33398 5C7.12484 5 5.33398 6.79086 5.33398 9C5.33398 11.2091 7.12484 13 9.33398 13C11.5431 13 13.334 11.2091 13.334 9C13.334 8.59 13.2723 8.1945 13.1578 7.82212C12.8442 8.5166 12.1455 9 11.334 9C10.2294 9 9.33398 8.1046 9.33398 7C9.33398 6.18846 9.81738 5.48982 10.5119 5.17624Z" fill="#150958"/>
</svg>